<?xml version="1.0" encoding="iso-8859-1"?>
<!-- Generator: Adobe Illustrator 19.0.0, SVG Export Plug-In . SVG Version: 6.00 Build 0)  -->
<svg version="1.1" id="Capa_1" xmlns="http://www.w3.org/2000/svg" xmlns:xlink="http://www.w3.org/1999/xlink" x="0px" y="0px"
	 viewBox="0 0 456.152 456.152" style="enable-background:new 0 0 456.152 456.152;" xml:space="preserve">
<g>
	<g>
		<path d="M264.651,292.901c-25.8,9.9-54.9,3.7-74.4-15.9c-4-4-7.5-8.4-10.4-13.3h79.2c5.5,0,10-4.5,10-10s-4.5-10-10-10h-87.4
			c-1.7-6.9-2.2-14-1.6-21h94.3c5.5,0,10-4.5,10-10s-4.5-10-10-10h-89.7c3.4-9,8.8-17.1,15.6-23.9c19.5-19.6,48.6-25.9,74.4-16
			c5.2,2,10.9-0.6,12.9-5.7c2-5.1-0.6-10.9-5.7-12.9c-33.2-12.7-70.7-4.6-95.7,20.6c-10.6,10.5-18.3,23.6-22.6,37.9h-9.1
			c-5.5,0-10,4.5-10,10s4.5,10,10,10h5.6c-0.5,7,0,14.1,1.3,21h-6.8c-5.5,0-10,4.5-10,10s4.5,10,10,10h12.9
			c4.4,11,10.7,19.4,18.7,27.4c25.1,25.1,62.6,33.1,95.7,20.4c5.1-2,7.7-7.8,5.7-12.9
			C275.551,293.501,269.751,290.901,264.651,292.901z"/>
	</g>
</g>
<g>
	<g>
		<path d="M389.751,67.601c-0.3-0.3-0.6-0.6-0.8-0.8c-42.6-43-100.6-67-161.1-66.8c-125.8,0-227.8,102-227.8,227.9
			c0,60.4,24,118.4,66.7,161.1c88.8,89.2,233,89.6,322.2,0.8S478.551,156.801,389.751,67.601z M227.851,435.701
			c-114.6,0-207.9-93.2-207.9-207.8s93.3-207.9,207.9-207.9s207.8,93.2,207.8,207.8S342.451,435.701,227.851,435.701z"/>
	</g>
</g>
<g>
	<g>
		<path d="M227.851,53.401c-96.2,0-174.4,78.2-174.4,174.4s78.2,174.4,174.4,174.4s174.4-78.2,174.4-174.4
			S324.051,53.401,227.851,53.401z M227.851,382.201c-85.1,0-154.4-69.3-154.4-154.4s69.3-154.4,154.4-154.4s154.4,69.3,154.4,154.4
			S312.951,382.201,227.851,382.201z"/>
	</g>
</g>
<g>
</g>
<g>
</g>
<g>
</g>
<g>
</g>
<g>
</g>
<g>
</g>
<g>
</g>
<g>
</g>
<g>
</g>
<g>
</g>
<g>
</g>
<g>
</g>
<g>
</g>
<g>
</g>
<g>
</g>
</svg>
